<svg width="975" height="218" viewBox="0 0 975 218" fill="none" xmlns="http://www.w3.org/2000/svg">
<rect y="63" width="975" height="155" fill="url(#paint0_linear_1027_1251)"/>
<g clip-path="url(#paint1_diamond_1027_1251_clip_path)" data-figma-skip-parse="true"><g transform="matrix(0.126 0 0 0.014 486 180)"><rect x="0" y="0" width="1007.94" height="1071.43" fill="url(#paint1_diamond_1027_1251)" opacity="0.33" shape-rendering="crispEdges"/><rect x="0" y="0" width="1007.94" height="1071.43" transform="scale(1 -1)" fill="url(#paint1_diamond_1027_1251)" opacity="0.33" shape-rendering="crispEdges"/><rect x="0" y="0" width="1007.94" height="1071.43" transform="scale(-1 1)" fill="url(#paint1_diamond_1027_1251)" opacity="0.33" shape-rendering="crispEdges"/><rect x="0" y="0" width="1007.94" height="1071.43" transform="scale(-1)" fill="url(#paint1_diamond_1027_1251)" opacity="0.33" shape-rendering="crispEdges"/></g></g><path d="M360 180C360 172.268 366.268 166 374 166H598C605.732 166 612 172.268 612 180C612 187.732 605.732 194 598 194H374C366.268 194 360 187.732 360 180Z" data-figma-gradient-fill="{&#34;type&#34;:&#34;GRADIENT_DIAMOND&#34;,&#34;stops&#34;:[{&#34;color&#34;:{&#34;r&#34;:0.0,&#34;g&#34;:0.0,&#34;b&#34;:0.0,&#34;a&#34;:1.0},&#34;position&#34;:0.0},{&#34;color&#34;:{&#34;r&#34;:0.0,&#34;g&#34;:0.0,&#34;b&#34;:0.0,&#34;a&#34;:0.0},&#34;position&#34;:1.0}],&#34;stopsVar&#34;:[{&#34;color&#34;:{&#34;r&#34;:0.0,&#34;g&#34;:0.0,&#34;b&#34;:0.0,&#34;a&#34;:1.0},&#34;position&#34;:0.0},{&#34;color&#34;:{&#34;r&#34;:0.0,&#34;g&#34;:0.0,&#34;b&#34;:0.0,&#34;a&#34;:0.0},&#34;position&#34;:1.0}],&#34;transform&#34;:{&#34;m00&#34;:252.0,&#34;m01&#34;:0.0,&#34;m02&#34;:360.0,&#34;m10&#34;:0.0,&#34;m11&#34;:28.0,&#34;m12&#34;:166.0},&#34;opacity&#34;:0.33000001311302185,&#34;blendMode&#34;:&#34;NORMAL&#34;,&#34;visible&#34;:true}"/>
<path d="M399 28.5L486 22L574 28.5V168L486 178L399 168V28.5Z" fill="white"/>
<path fill-rule="evenodd" clip-rule="evenodd" d="M486 26C450.311 26 424.643 29.1021 411.73 31.1182C408.222 31.6661 405.555 34.2869 404.945 37.7913C402.926 49.4028 400 70.7762 400 97.1106C400 123.909 403.029 146.806 405.06 159.136C405.651 162.724 408.336 165.393 411.849 165.949C424.56 167.961 449.752 171 486 171C522.632 171 547.974 167.897 560.552 165.885C563.937 165.344 566.477 162.846 567.069 159.501C569.078 148.161 572 126.598 572 97.1106C572 68.1181 569.176 47.9498 567.184 37.3316C566.585 34.1348 564.105 31.7233 560.739 31.192C547.986 29.1787 522.127 26 486 26ZM409.879 19.2619C423.329 17.1619 449.619 14 486 14C522.827 14 549.315 17.24 562.61 19.3387C570.836 20.6372 577.415 26.7818 578.978 35.1194C581.099 46.4258 584 67.3352 584 97.1106C584 127.387 581.001 149.654 578.885 161.594C577.396 170.003 570.849 176.391 562.447 177.734C549.287 179.839 523.311 183 486 183C449.081 183 423.26 179.905 409.972 177.801C401.272 176.424 394.638 169.698 393.219 161.086C391.12 148.34 388 124.759 388 97.1106C388 69.9198 391.018 47.8382 393.123 35.7349C394.613 27.1706 401.285 20.6037 409.879 19.2619Z" fill="#4072C3"/>
<path fill-rule="evenodd" clip-rule="evenodd" d="M574 69H400V57H574V69Z" fill="#4072C3"/>
<path fill-rule="evenodd" clip-rule="evenodd" d="M437 2.62268e-07C440.314 1.17422e-07 443 2.68629 443 6L443 38C443 41.3137 440.314 44 437 44C433.686 44 431 41.3137 431 38L431 6C431 2.68629 433.686 4.07115e-07 437 2.62268e-07Z" fill="#4072C3"/>
<path fill-rule="evenodd" clip-rule="evenodd" d="M486 2.62268e-07C489.314 1.17422e-07 492 2.68629 492 6L492 38C492 41.3137 489.314 44 486 44C482.686 44 480 41.3137 480 38L480 6C480 2.68629 482.686 4.07115e-07 486 2.62268e-07Z" fill="#4072C3"/>
<path fill-rule="evenodd" clip-rule="evenodd" d="M535 2.62268e-07C538.314 1.17422e-07 541 2.68629 541 6L541 38C541 41.3137 538.314 44 535 44C531.686 44 529 41.3137 529 38L529 6C529 2.68629 531.686 4.07115e-07 535 2.62268e-07Z" fill="#4072C3"/>
<path d="M446.162 150.32C446.163 150.319 446.165 150.319 446.166 150.318C446.167 150.317 446.168 150.316 446.169 150.315C446.169 150.315 446.169 150.315 446.168 150.314C443.787 152.615 439.992 152.553 437.688 150.173C435.384 147.792 435.446 143.993 437.827 141.688L441.904 145.901C437.883 141.746 437.83 141.687 437.831 141.685C437.832 141.684 437.834 141.682 437.836 141.681C437.839 141.678 437.842 141.674 437.846 141.671C437.853 141.664 437.86 141.657 437.869 141.648C437.887 141.632 437.908 141.611 437.934 141.587C437.985 141.539 438.052 141.477 438.134 141.402C438.298 141.252 438.524 141.05 438.811 140.804C439.384 140.311 440.203 139.639 441.261 138.849C443.375 137.27 446.456 135.209 450.449 133.161C458.445 129.061 470.129 125 485 125C499.861 125 511.772 129.056 519.978 133.125C524.08 135.159 527.274 137.204 529.471 138.768C530.57 139.55 531.424 140.213 532.021 140.698C532.319 140.941 532.554 141.139 532.724 141.285C532.808 141.358 532.877 141.419 532.929 141.465C532.955 141.488 532.977 141.507 532.995 141.523C533.004 141.531 533.012 141.539 533.019 141.545C533.022 141.548 533.025 141.55 533.028 141.553C533.03 141.554 533.031 141.556 533.032 141.557C533.034 141.558 533.036 141.56 529.259 145.715L533.036 141.561C535.488 143.79 535.668 147.584 533.439 150.036C531.212 152.486 527.423 152.668 524.971 150.445L524.975 150.449C524.963 150.439 524.935 150.415 524.893 150.378C524.807 150.304 524.66 150.18 524.454 150.013C524.041 149.677 523.391 149.169 522.514 148.545C520.758 147.296 518.107 145.59 514.647 143.875C507.728 140.444 497.638 137 485 137C472.371 137 462.555 140.439 455.926 143.839C452.607 145.541 450.094 147.23 448.442 148.464C447.618 149.08 447.01 149.58 446.629 149.907C446.438 150.071 446.304 150.191 446.228 150.261C446.196 150.289 446.174 150.309 446.162 150.32Z" fill="#FF7700"/>
<path d="M441.655 106.5C436.116 106.5 431.778 104.225 428.938 102.107C427.508 101.041 426.403 99.9766 425.646 99.167C425.266 98.7602 424.968 98.4115 424.755 98.1514C424.648 98.0212 424.562 97.9125 424.498 97.8291C424.466 97.7873 424.439 97.7515 424.417 97.7227C424.406 97.7083 424.397 97.6955 424.389 97.6846C424.385 97.6791 424.38 97.6745 424.377 97.6699C424.375 97.6676 424.374 97.6652 424.372 97.6631C424.371 97.6622 424.371 97.6608 424.37 97.6602C424.369 97.6587 424.368 97.6572 427.649 95.2568L424.368 97.6572C422.901 95.6514 423.337 92.8356 425.343 91.3682C427.348 89.9013 430.163 90.3367 431.631 92.3408C431.631 92.3404 431.629 92.3387 431.628 92.3379C431.627 92.3363 431.626 92.3344 431.625 92.333C431.641 92.3538 431.672 92.3937 431.719 92.4502C431.819 92.5728 431.988 92.7713 432.221 93.0205C432.691 93.5233 433.4 94.2089 434.317 94.8926C436.171 96.2749 438.66 97.5 441.655 97.5C444.635 97.5 447.03 96.2864 448.78 94.9365C449.65 94.2658 450.316 93.5937 450.754 93.1016C450.971 92.8576 451.127 92.664 451.219 92.5459C451.264 92.4871 451.293 92.4476 451.306 92.4307C451.312 92.4222 451.314 92.4195 451.312 92.4229C452.725 90.3985 455.51 89.8901 457.549 91.291C459.597 92.6986 460.117 95.5006 458.709 97.5488L455.059 95.04C458.667 97.5198 458.708 97.5499 458.707 97.5518C458.707 97.5523 458.705 97.5536 458.704 97.5547C458.703 97.5569 458.701 97.5591 458.699 97.5615C458.696 97.5664 458.692 97.5724 458.688 97.5781C458.68 97.5896 458.671 97.6023 458.66 97.6172C458.639 97.647 458.613 97.6838 458.582 97.7266C458.52 97.8121 458.438 97.9232 458.335 98.0557C458.13 98.3204 457.843 98.6736 457.476 99.0859C456.745 99.9062 455.676 100.984 454.276 102.063C451.488 104.214 447.21 106.5 441.655 106.5ZM431.621 92.3281C431.617 92.3227 431.614 92.3189 431.613 92.3174C431.614 92.3186 431.616 92.3212 431.619 92.3252L431.621 92.3281Z" fill="#FF7700"/>
<path d="M528.655 106.5C523.116 106.5 518.778 104.225 515.938 102.107C514.508 101.041 513.403 99.9766 512.646 99.167C512.266 98.7602 511.968 98.4115 511.755 98.1514C511.648 98.0212 511.562 97.9125 511.498 97.8291C511.466 97.7873 511.439 97.7515 511.417 97.7227C511.406 97.7083 511.397 97.6955 511.389 97.6846C511.385 97.6791 511.38 97.6745 511.377 97.6699C511.375 97.6676 511.374 97.6652 511.372 97.6631C511.371 97.6622 511.371 97.6608 511.37 97.6602C511.369 97.6587 511.368 97.6572 514.649 95.2568L511.368 97.6572C509.901 95.6514 510.337 92.8356 512.343 91.3682C514.348 89.9013 517.163 90.3367 518.631 92.3408C518.631 92.3404 518.629 92.3387 518.628 92.3379C518.627 92.3363 518.626 92.3344 518.625 92.333C518.641 92.3538 518.672 92.3937 518.719 92.4502C518.819 92.5728 518.988 92.7713 519.221 93.0205C519.691 93.5233 520.4 94.2089 521.317 94.8926C523.171 96.2749 525.66 97.5 528.655 97.5C531.635 97.5 534.03 96.2864 535.78 94.9365C536.65 94.2658 537.316 93.5937 537.754 93.1016C537.971 92.8576 538.127 92.664 538.219 92.5459C538.264 92.4871 538.293 92.4476 538.306 92.4307C538.312 92.4222 538.314 92.4195 538.312 92.4229C539.725 90.3985 542.51 89.8901 544.549 91.291C546.597 92.6986 547.117 95.5006 545.709 97.5488L542.059 95.04C545.667 97.5198 545.708 97.5499 545.707 97.5518C545.707 97.5523 545.705 97.5536 545.704 97.5547C545.703 97.5569 545.701 97.5591 545.699 97.5615C545.696 97.5664 545.692 97.5724 545.688 97.5781C545.68 97.5896 545.671 97.6023 545.66 97.6172C545.639 97.647 545.613 97.6838 545.582 97.7266C545.52 97.8121 545.438 97.9232 545.335 98.0557C545.13 98.3204 544.843 98.6736 544.476 99.0859C543.745 99.9062 542.676 100.984 541.276 102.063C538.488 104.214 534.21 106.5 528.655 106.5ZM518.621 92.3281C518.617 92.3227 518.614 92.3189 518.613 92.3174C518.614 92.3186 518.616 92.3212 518.619 92.3252L518.621 92.3281Z" fill="#FF7700"/>
<rect width="219" height="218" fill="url(#paint2_linear_1027_1251)"/>
<rect x="975" y="218" width="219" height="218" transform="rotate(-180 975 218)" fill="url(#paint3_linear_1027_1251)"/>
<defs>
<clipPath id="paint1_diamond_1027_1251_clip_path"><path d="M360 180C360 172.268 366.268 166 374 166H598C605.732 166 612 172.268 612 180C612 187.732 605.732 194 598 194H374C366.268 194 360 187.732 360 180Z"/></clipPath><linearGradient id="paint0_linear_1027_1251" x1="131.881" y1="63" x2="131.881" y2="218" gradientUnits="userSpaceOnUse">
<stop stop-color="white"/>
<stop offset="0.572115" stop-color="#D9E0EC"/>
<stop offset="0.613533" stop-color="#E8ECF3"/>
<stop offset="1" stop-color="white"/>
</linearGradient>
<linearGradient id="paint1_diamond_1027_1251" x1="0" y1="0" x2="500" y2="500" gradientUnits="userSpaceOnUse">
<stop/>
<stop offset="1" stop-opacity="0"/>
</linearGradient>
<linearGradient id="paint2_linear_1027_1251" x1="219" y1="114.218" x2="0.0247297" y2="117.572" gradientUnits="userSpaceOnUse">
<stop stop-color="white" stop-opacity="0"/>
<stop offset="1" stop-color="white"/>
</linearGradient>
<linearGradient id="paint3_linear_1027_1251" x1="1194" y1="332.218" x2="975.025" y2="335.572" gradientUnits="userSpaceOnUse">
<stop stop-color="white" stop-opacity="0"/>
<stop offset="1" stop-color="white"/>
</linearGradient>
</defs>
</svg>
